<svg width="19" height="16" viewBox="0 0 19 16" fill="none" xmlns="http://www.w3.org/2000/svg">
<path d="M18.063 12.0626C17.4398 12.7859 16.5923 13.0419 15.6702 13.2525C15.6702 13.0575 15.6829 12.8807 15.6702 12.7046C15.6173 12.0678 15.5867 11.4257 15.4879 10.796C15.3331 9.80564 14.9387 8.92834 14.1319 8.30188C13.8726 8.10108 13.5846 7.93991 13.3227 7.769C13.5635 7.71766 13.8324 7.68712 14.0784 7.59939C14.2728 7.53441 14.4429 7.39079 14.6245 7.28486C14.6717 7.25757 14.7296 7.21273 14.7736 7.21988C15.3777 7.3388 15.9773 7.47397 16.5425 7.73976C17.2964 8.09198 17.7335 8.69439 17.8807 9.51061C17.9585 9.94471 17.9839 10.3879 18.0311 10.8272C18.0458 10.963 18.0547 11.0995 18.0655 11.2353L18.063 12.0626Z" fill="#444444"/>
<path d="M9.03863 15.6524C7.87952 15.6342 6.72679 15.5588 5.59763 15.2624C4.8884 15.0759 4.20976 14.8179 3.62734 14.3468C3.58592 14.313 3.54705 14.2766 3.50626 14.2422C3.39906 14.16 3.31438 14.0511 3.26037 13.9259C3.20635 13.8007 3.18483 13.6635 3.19785 13.5273C3.25201 12.6617 3.22971 11.7903 3.39539 10.9331C3.50244 10.3762 3.6764 9.84657 4.03835 9.39947C4.46975 8.8653 5.04707 8.56312 5.67665 8.36621C6.18005 8.2083 6.6962 8.09717 7.21108 7.9763C7.24902 7.9711 7.2876 7.97378 7.3245 7.98416C7.3614 7.99455 7.39586 8.01243 7.42582 8.03674C7.92158 8.47474 8.5091 8.6177 9.14632 8.59691C9.72492 8.57806 10.2557 8.4156 10.689 7.99709C10.7072 7.98358 10.7278 7.97391 10.7497 7.96866C10.7716 7.96342 10.7943 7.9627 10.8165 7.96655C11.5735 8.10822 12.3203 8.28368 13.0238 8.6164C13.93 9.04466 14.4385 9.77834 14.6481 10.7609C14.7998 11.468 14.8265 12.1847 14.8546 12.9054C14.8629 13.127 14.8546 13.3506 14.8775 13.5696C14.9087 13.836 14.8055 14.0245 14.6226 14.2012C14.2735 14.523 13.8697 14.7769 13.431 14.9505C12.4981 15.3404 11.5155 15.5087 10.5183 15.5887C10.0251 15.6205 9.53184 15.6296 9.03863 15.6524Z" fill="#444444"/>
<path d="M12.1597 3.64894C12.1342 4.8908 11.8086 5.99945 10.9006 6.867C9.75358 7.9633 8.10699 7.89442 7.02754 6.72273C6.41248 6.05895 6.04224 5.19814 5.97995 4.28709C5.91176 3.46048 5.94681 2.63517 6.18704 1.83585C6.49673 0.796087 7.2066 0.231365 8.23763 0.0663032C8.84771 -0.0365824 9.47145 -0.0198199 10.0754 0.115692C11.1325 0.358736 11.7398 1.05538 11.9577 2.10814C12.0622 2.61112 12.0947 3.13555 12.1597 3.64894Z" fill="#444444"/>
<path d="M5.64605 0.860986C4.94065 2.82159 4.85781 4.73995 5.87927 6.63167C5.17833 7.04823 4.45062 7.09437 3.72865 6.68821C2.91045 6.22811 2.4816 5.47494 2.31465 4.56514C2.17631 3.78984 2.21999 2.99215 2.4421 2.23737C2.67659 1.41661 3.23671 0.960413 4.04598 0.814197C4.57687 0.718138 5.12143 0.734062 5.64605 0.860986V0.860986Z" fill="#444444"/>
<path d="M12.1986 6.62915C13.2182 4.73548 13.1341 2.82297 12.4255 0.841569C12.6854 0.814275 12.9601 0.772035 13.236 0.760337C13.7005 0.740192 14.1619 0.796079 14.5927 0.991035C14.8305 1.09027 15.0436 1.24259 15.2161 1.4368C15.3887 1.63101 15.5164 1.86218 15.5899 2.11333C15.9034 3.16804 15.9722 4.23509 15.5491 5.27811C15.2305 6.07158 14.6901 6.66099 13.849 6.89429C13.2666 7.05285 12.7148 6.94693 12.1986 6.62915Z" fill="#444444"/>
<path d="M2.40896 13.2505C1.71694 13.1017 1.09501 12.9145 0.542539 12.5402L0.497296 12.5116C0.165303 12.2887 -0.0494408 12.0255 0.00982084 11.5687C0.100306 10.8759 0.0983948 10.1695 0.209909 9.48133C0.382596 8.42662 1.07781 7.83395 2.03937 7.53827C2.44274 7.41415 2.85757 7.32707 3.26794 7.22829C3.29192 7.22145 3.31702 7.2197 3.34168 7.22317C3.36634 7.22663 3.39005 7.23523 3.41131 7.24844C3.77453 7.59871 4.22186 7.71243 4.70233 7.74037C4.72527 7.74037 4.74821 7.74622 4.81703 7.75532C4.7361 7.80081 4.68958 7.8294 4.64243 7.85345C3.55915 8.39348 2.92193 9.28312 2.65238 10.4659C2.48925 11.1748 2.43318 11.8955 2.40769 12.6201C2.40259 12.8222 2.40896 13.025 2.40896 13.2505Z" fill="#444444"/>
</svg>
