<svg width="19" height="20" viewBox="0 0 19 20" fill="none" xmlns="http://www.w3.org/2000/svg">
<path d="M9.49998 4.90631C8.82893 4.90631 8.17296 5.1053 7.61501 5.47811C7.05705 5.85092 6.62218 6.38081 6.36538 7.00078C6.10859 7.62074 6.0414 8.30293 6.17231 8.96108C6.30323 9.61923 6.62636 10.2238 7.10086 10.6983C7.57536 11.1728 8.17991 11.4959 8.83806 11.6268C9.49621 11.7577 10.1784 11.6906 10.7984 11.4338C11.4183 11.177 11.9482 10.7421 12.321 10.1841C12.6938 9.62619 12.8928 8.97021 12.8928 8.29917C12.8928 7.39933 12.5354 6.53634 11.8991 5.90006C11.2628 5.26377 10.3998 4.90631 9.49998 4.90631Z" fill="#444444" fill-opacity="0.3"/>
<path d="M9.5 0.834839C7.62108 0.834839 5.78435 1.392 4.22209 2.43588C2.65982 3.47975 1.44218 4.96345 0.723149 6.69935C0.00411619 8.43524 -0.184015 10.3454 0.182544 12.1882C0.549104 14.031 1.45389 15.7238 2.78249 17.0523C4.11109 18.3809 5.80383 19.2857 7.64665 19.6523C9.48946 20.0189 11.3996 19.8307 13.1355 19.1117C14.8714 18.3927 16.3551 17.175 17.399 15.6128C18.4428 14.0505 19 12.2138 19 10.3348C18.9971 7.81616 17.9953 5.40147 16.2143 3.6205C14.4334 1.83952 12.0187 0.837712 9.5 0.834839ZM14.9231 16.3918C14.9096 15.5017 14.547 14.6526 13.9134 14.0273C13.2798 13.4021 12.4259 13.0508 11.5357 13.0491H7.46429C6.57413 13.0508 5.72025 13.4021 5.08664 14.0273C4.45302 14.6526 4.09038 15.5017 4.07686 16.3918C2.84631 15.293 1.97853 13.8464 1.58843 12.2434C1.19832 10.6405 1.30429 8.95689 1.89229 7.41553C2.4803 5.87416 3.52262 4.54776 4.88122 3.61194C6.23982 2.67612 7.85063 2.17503 9.50034 2.17503C11.1501 2.17503 12.7609 2.67612 14.1195 3.61194C15.4781 4.54776 16.5204 5.87416 17.1084 7.41553C17.6964 8.95689 17.8024 10.6405 17.4123 12.2434C17.0221 13.8464 16.1544 15.293 14.9238 16.3918H14.9231Z" fill="#444444" fill-opacity="0.3"/>
</svg>
