<svg width="18" height="18" viewBox="0 0 18 18" fill="none" xmlns="http://www.w3.org/2000/svg">
<path d="M17.0801 12.8135V15.3899C17.081 15.6291 17.032 15.8658 16.9362 16.085C16.8404 16.3041 16.6999 16.5008 16.5236 16.6625C16.3474 16.8242 16.1393 16.9473 15.9127 17.024C15.6861 17.1006 15.4461 17.129 15.2079 17.1075C12.5652 16.8204 10.0267 15.9173 7.79635 14.471C5.72132 13.1524 3.96207 11.3932 2.64351 9.31814C1.19211 7.07769 0.288868 4.52685 0.00697068 1.87228C-0.0144905 1.63479 0.0137337 1.39544 0.0898459 1.16946C0.165958 0.943473 0.288291 0.735814 0.449055 0.5597C0.60982 0.383586 0.805493 0.242876 1.02362 0.146529C1.24174 0.0501814 1.47754 0.000307824 1.716 8.32634e-05H4.29242C4.7092 -0.00401878 5.11326 0.143571 5.42927 0.415344C5.74529 0.687117 5.9517 1.06453 6.01003 1.47723C6.11878 2.30174 6.32045 3.11131 6.6112 3.89048C6.72674 4.19787 6.75175 4.53193 6.68326 4.8531C6.61476 5.17426 6.45563 5.46906 6.22473 5.70256L5.13405 6.79325C6.35661 8.94331 8.13683 10.7235 10.2869 11.9461L11.3776 10.8554C11.6111 10.6245 11.9059 10.4654 12.227 10.3969C12.5482 10.3284 12.8823 10.3534 13.1897 10.4689C13.9688 10.7597 14.7784 10.9614 15.6029 11.0701C16.0201 11.129 16.4011 11.3391 16.6734 11.6605C16.9458 11.982 17.0905 12.3923 17.0801 12.8135Z" fill="#444444"/>
</svg>
