<svg width="18" height="30" viewBox="0 0 18 30" fill="none" xmlns="http://www.w3.org/2000/svg">
<path d="M7.15042 11.3394C7.53536 11.0139 8.02305 10.8352 8.52713 10.8348C9.03121 10.8345 9.51914 11.0125 9.90453 11.3375L16.3178 16.7432C16.7988 17.1483 17.0768 17.746 17.0768 18.375V27.6714C17.0768 28.1117 16.9019 28.534 16.5905 28.8454C16.2791 29.1567 15.8569 29.3316 15.4165 29.3316H1.66024C1.22008 29.3316 0.797937 29.1569 0.486609 28.8457C0.17528 28.5345 0.000251519 28.1125 0 27.6723V18.375C0 17.7469 0.277023 17.1512 0.756121 16.7451L7.15042 11.3394Z" fill="#01D46F"/>
<circle cx="8.5" cy="3.33484" r="2.5" fill="#01D46F"/>
</svg>
