<svg width="18" height="19" viewBox="0 0 18 19" fill="none" xmlns="http://www.w3.org/2000/svg">
<path d="M7.15042 0.504525C7.53536 0.179073 8.02305 0.000347788 8.52713 5.0705e-07C9.03121 -0.000346773 9.51914 0.177706 9.90453 0.502627L16.3178 5.90837C16.7988 6.31347 17.0768 6.91116 17.0768 7.54015V16.8366C17.0768 17.2769 16.9019 17.6992 16.5905 18.0105C16.2791 18.3219 15.8569 18.4968 15.4165 18.4968H1.66024C1.22008 18.4968 0.797937 18.322 0.486609 18.0109C0.17528 17.6997 0.000251519 17.2777 0 16.8375V7.54015C0 6.91211 0.277023 6.31632 0.756121 5.91027L7.15042 0.504525Z" fill="#01D46F"/>
</svg>
