<svg width="19" height="24" viewBox="0 0 19 24" fill="none" xmlns="http://www.w3.org/2000/svg">
<path d="M14.762 23.2161H3.28477C3.24589 23.1979 3.20541 23.1834 3.16386 23.1729C1.29009 22.8715 -0.039157 21.2726 0.000880613 19.3413C0.0128919 18.7835 0.0809559 18.2266 0.121794 17.6696C0.260592 15.8562 0.399656 14.0425 0.538987 12.2285C0.699137 10.2261 0.859288 8.22702 1.00983 6.22221C1.0851 5.20797 1.73051 4.5759 2.73305 4.57345H4.62203C4.62203 5.57871 4.61722 6.58398 4.62203 7.58924C4.61893 7.68028 4.63384 7.77103 4.66586 7.85607C4.69789 7.94112 4.74638 8.01871 4.80843 8.08423C4.87049 8.14976 4.94485 8.20187 5.02708 8.23746C5.10931 8.27305 5.19772 8.29139 5.28705 8.29139C5.37638 8.29139 5.46479 8.27305 5.54702 8.23746C5.62925 8.20187 5.70361 8.14976 5.76567 8.08423C5.82773 8.01871 5.87622 7.94112 5.90824 7.85607C5.94027 7.77103 5.95518 7.68028 5.95208 7.58924C5.95208 6.58398 5.95208 5.57871 5.95208 4.57263H12.0979C12.0979 5.5632 12.0931 6.55376 12.0979 7.54351C12.0979 7.9853 12.3757 8.29154 12.7641 8.29154C13.1524 8.29154 13.4295 7.9853 13.4303 7.54433C13.4303 6.55376 13.4303 5.5632 13.4303 4.57345C14.0709 4.57345 14.7187 4.57345 15.3633 4.57345C16.317 4.57998 16.9728 5.22675 17.0449 6.19935C17.125 7.40387 17.2291 8.60757 17.3236 9.81209C17.4501 11.4372 17.5777 13.0625 17.7063 14.6881C17.8192 16.1409 17.9153 17.5953 18.0491 19.0457C18.2044 20.7222 17.2483 22.3497 15.7028 22.945C15.3898 23.061 15.0695 23.1271 14.762 23.2161ZM8.1029 14.5681C7.73696 14.1916 7.38222 13.8193 7.01868 13.4534C6.69838 13.1268 6.298 13.1104 6.01614 13.4036C5.73427 13.6968 5.7615 14.0904 6.07299 14.4113C6.57266 14.9263 7.07527 15.4389 7.58081 15.949C7.92513 16.2953 8.28867 16.2944 8.6346 15.949C8.93568 15.6477 9.23196 15.3414 9.53064 15.0368C10.3479 14.2039 11.165 13.3707 11.9817 12.5372C12.2932 12.217 12.3069 11.8145 12.0306 11.5303C11.7543 11.2461 11.3532 11.2649 11.0417 11.5719C10.8815 11.7295 10.727 11.892 10.57 12.0521L8.1029 14.5681Z" fill="#444444"/>
<path d="M13.4303 4.57665H12.0898C12.1027 2.78008 10.7494 1.35344 9.02376 1.35344C7.29813 1.35344 5.94086 2.776 5.95687 4.57665H4.61561C4.63002 3.21616 5.10407 2.06309 6.0946 1.13785C7.81382 -0.468446 10.5972 -0.359835 12.1931 1.37304C13.0235 2.27541 13.4231 3.346 13.4303 4.57665Z" fill="#444444"/>
</svg>
