<svg width="18" height="21" viewBox="0 0 18 21" fill="none" xmlns="http://www.w3.org/2000/svg">
<path fill-rule="evenodd" clip-rule="evenodd" d="M8.54029 20.8763C8.54029 20.8763 17.0806 15.1827 17.0806 8.54029C17.0806 6.27526 16.1808 4.10301 14.5792 2.50139C12.9776 0.899778 10.8053 0 8.54029 0C6.27526 0 4.10301 0.899778 2.50139 2.50139C0.899778 4.10301 0 6.27526 0 8.54029C0 15.1827 8.54029 20.8763 8.54029 20.8763ZM11.3871 7.59139C11.3871 9.16362 10.1125 10.4382 8.54029 10.4382C6.96806 10.4382 5.69353 9.16362 5.69353 7.59139C5.69353 6.01917 6.96806 4.74463 8.54029 4.74463C10.1125 4.74463 11.3871 6.01917 11.3871 7.59139Z" fill="#444444"/>
</svg>
