<svg width="18" height="18" viewBox="0 0 18 18" fill="none" xmlns="http://www.w3.org/2000/svg">
<path d="M1.20153 0H9.50803C9.55021 0.0116758 9.59178 0.0270388 9.63457 0.034413C10.5601 0.200333 11.3362 1.04038 11.3706 1.97199C11.4007 2.78192 11.382 3.59308 11.3802 4.40424C11.3793 4.50416 11.3555 4.60247 11.3107 4.69134C11.2659 4.78021 11.2014 4.85719 11.1223 4.91614C11.0223 5.00397 10.8993 5.05997 10.7684 5.07723C10.6375 5.09449 10.5046 5.07224 10.386 5.01323C10.2603 4.96278 10.1529 4.87407 10.0784 4.75917C10.0039 4.64427 9.96591 4.50876 9.9696 4.37106C9.96418 3.67358 9.9696 2.97611 9.9696 2.2817C9.9696 1.74584 9.69 1.45763 9.17119 1.45702C8.18096 1.45702 7.19113 1.45702 6.2017 1.45702C6.1541 1.45702 6.10589 1.46132 6.05226 1.46378C6.06371 1.4816 6.06732 1.49389 6.07456 1.49696C6.85067 1.83188 7.1146 2.23992 7.1146 3.10024V13.7867H9.15914C9.6894 13.7867 9.96598 13.5009 9.96659 12.954C9.96659 12.0525 9.96659 11.151 9.96659 10.2501C9.96322 10.1541 9.97213 10.0581 9.9931 9.9644C10.0371 9.80169 10.1356 9.65989 10.2716 9.56375C10.4077 9.46761 10.5725 9.42324 10.7373 9.43837C11.1085 9.48261 11.3772 9.76283 11.3796 10.1408C11.3869 11.1105 11.3869 12.08 11.3796 13.0493C11.3718 14.2967 10.439 15.2376 9.21638 15.2419C8.57705 15.2419 7.93711 15.2419 7.29778 15.2419H7.11159C7.11159 15.4711 7.1146 15.672 7.11159 15.8779C7.11379 16.0024 7.10471 16.1269 7.08447 16.2497C6.9037 17.1346 6.05347 17.6213 5.19058 17.33C3.82474 16.8691 2.46112 16.4052 1.0997 15.9381C0.34166 15.6782 0 15.1927 0 14.3754V1.60082C0 1.54428 0 1.48713 0 1.4306C0.0313339 0.811777 0.325993 0.373626 0.875541 0.1143C0.982077 0.0701575 1.0909 0.0320002 1.20153 0V0Z" fill="#444444"/>
<path d="M17.0806 7.41658C16.951 7.59602 16.8395 7.79512 16.6889 7.95244C15.823 8.84841 14.9463 9.73454 14.0749 10.6256C13.8863 10.8185 13.6688 10.9236 13.3994 10.8714C13.0457 10.8069 12.8137 10.515 12.8119 10.134C12.8089 9.48812 12.8119 8.84349 12.8119 8.19517V7.98439H12.6101C11.7484 7.98439 10.8867 7.98439 10.025 7.98439C9.62793 7.98439 9.3405 7.75764 9.2706 7.40122C9.17961 6.93787 9.51163 6.53352 9.98827 6.53168C10.8608 6.53168 11.7357 6.53168 12.6065 6.53168H12.8119V6.34732C12.8119 5.70638 12.8119 5.06605 12.8119 4.42511C12.8119 4.08528 12.9409 3.82411 13.2512 3.69261C13.5615 3.5611 13.8357 3.64652 14.0713 3.88741C14.9939 4.83131 15.9206 5.76968 16.8389 6.71788C16.9438 6.82603 17.0028 6.98027 17.08 7.11362L17.0806 7.41658Z" fill="#444444"/>
</svg>
