<svg width="18" height="20" viewBox="0 0 18 20" fill="none" xmlns="http://www.w3.org/2000/svg">
<path d="M13.1554 12.8226C13.0876 12.8853 13.0348 12.9345 12.9826 12.9864C12.2881 13.6781 11.5597 14.3407 10.9079 15.0701C10.3293 15.7153 9.67071 16.1575 8.80751 16.2943C8.74952 16.3068 8.69229 16.3226 8.63609 16.3415C8.33458 16.4197 8.06288 16.5236 7.81896 16.7521C7.41785 17.1269 6.76672 17.0662 6.38458 16.6759C6.00244 16.2856 5.95162 15.656 6.32834 15.2643C6.56007 15.0243 6.66034 14.7519 6.74368 14.4553C6.81144 14.2052 6.90291 13.9612 6.9544 13.7077C7.04181 13.2776 7.26337 12.9527 7.57978 12.6413C9.7073 10.5474 11.8165 8.43334 13.9345 6.32939C14.2354 6.03142 14.5443 5.73953 14.8642 5.46516C14.9638 5.38022 15.0173 5.31617 15.0166 5.18135C15.0112 3.83309 15.0166 2.48484 15.0132 1.13658C15.0132 0.445599 14.5613 0 13.8614 0H1.15184C0.443119 0 0 0.445599 0 1.15613C0 6.78735 0 12.4179 0 18.0478C0 18.7563 0.446507 19.2039 1.15184 19.2046C5.38925 19.2046 9.62644 19.2046 13.8634 19.2046C14.5599 19.2046 15.0152 18.7569 15.0152 18.0666C15.0152 16.4514 15.0152 14.8364 15.0152 13.2217C15.0152 13.1603 15.0058 13.099 15.0003 13.0194C14.3302 13.6477 13.524 13.4475 13.1554 12.8226ZM11.7251 7.10598C11.6574 7.11147 11.5896 7.11282 11.5218 7.11003H2.56996C2.49582 7.11535 2.42133 7.11287 2.34772 7.10261C2.15801 7.06014 2.04756 6.94082 2.05366 6.74128C2.05976 6.55252 2.17156 6.44332 2.35246 6.40422C2.42618 6.39519 2.50057 6.39293 2.5747 6.39748H11.5292C11.597 6.39384 11.665 6.39542 11.7325 6.40219C11.8193 6.40881 11.9005 6.44772 11.9597 6.51119C12.019 6.57466 12.0521 6.65802 12.0523 6.74465C12.055 6.83565 12.0221 6.92413 11.9605 6.99151C11.899 7.05889 11.8136 7.09992 11.7223 7.10598H11.7251ZM2.37482 2.84617C2.44237 2.83965 2.51033 2.8383 2.57809 2.84212H11.5218C11.5962 2.83863 11.6707 2.84089 11.7447 2.84887C11.8305 2.8611 11.9088 2.90437 11.9645 2.97041C12.0203 3.03645 12.0496 3.12062 12.0469 3.20683C12.0456 3.28911 12.0149 3.36826 11.9603 3.43004C11.9056 3.49182 11.8306 3.53219 11.7488 3.54389C11.6749 3.55345 11.6002 3.55594 11.5258 3.55131H2.5747C2.50701 3.55544 2.43913 3.55544 2.37143 3.55131C2.28127 3.54439 2.19736 3.50279 2.13752 3.43532C2.07768 3.36786 2.04663 3.27985 2.05095 3.18997C2.06247 2.98908 2.17901 2.87853 2.3694 2.84617H2.37482ZM2.37482 4.62452C2.44237 4.61796 2.51033 4.61661 2.57809 4.62047H11.5218C11.5962 4.61698 11.6707 4.61924 11.7447 4.62722C11.8305 4.63945 11.9088 4.68272 11.9645 4.74876C12.0203 4.8148 12.0496 4.89897 12.0469 4.98518C12.0456 5.06756 12.0148 5.14679 11.96 5.20859C11.9052 5.27038 11.8301 5.31069 11.7481 5.32224C11.6742 5.33238 11.5996 5.33509 11.5252 5.33033H2.57402C2.50625 5.33314 2.43836 5.33179 2.37076 5.32629C2.28046 5.31971 2.19635 5.2782 2.13644 5.21066C2.07654 5.14312 2.0456 5.05491 2.05027 4.96495C2.06247 4.76676 2.17901 4.65688 2.37008 4.62452H2.37482ZM2.05705 8.54322C2.05027 8.30863 2.2095 8.17785 2.51033 8.17785C3.13504 8.17785 3.75906 8.17785 4.38309 8.17785C5.00711 8.17785 5.61691 8.17785 6.23484 8.17785C6.51738 8.17785 6.68338 8.30526 6.69083 8.52165C6.69829 8.73805 6.52483 8.8877 6.23349 8.8877C4.99221 8.8877 3.75003 8.8877 2.50695 8.8877C2.21424 8.8877 2.05908 8.76704 2.05231 8.54322H2.05705Z" fill="#444444"/>
<path d="M9.54376 14.8765L7.75366 13.0947L12.9613 7.91406L14.7528 9.69646L9.54376 14.8765Z" fill="#444444"/>
<path d="M16.2895 9.31957L15.7393 8.75532L15.368 9.20631L13.4769 7.32347C13.9323 6.89338 14.3686 6.41542 14.872 6.02241C15.3754 5.62939 16.1079 5.76893 16.5334 6.23476C16.7404 6.46128 16.8609 6.75287 16.8741 7.05874C16.8872 7.36461 16.792 7.66537 16.6052 7.90862C16.5097 8.03063 16.4019 8.13984 16.3017 8.24568L16.8335 8.78498C16.8886 8.69292 16.9526 8.60644 17.0246 8.52679C17.0568 8.49305 17.0956 8.46619 17.1386 8.44783C17.1816 8.42948 17.2278 8.42001 17.2746 8.42001C17.3214 8.42001 17.3677 8.42948 17.4107 8.44783C17.4536 8.46619 17.4924 8.49305 17.5246 8.52679C17.5581 8.55926 17.5846 8.59805 17.6028 8.64089C17.6209 8.68372 17.6303 8.72973 17.6303 8.77622C17.6303 8.8227 17.6209 8.86872 17.6028 8.91155C17.5846 8.95439 17.5581 8.99318 17.5246 9.02565C17.2949 9.26766 17.0544 9.49754 16.8173 9.73483C15.9017 10.6507 14.9858 11.5633 14.0698 12.4725C14.0246 12.5206 13.9761 12.5656 13.9248 12.6073C13.7635 12.7313 13.5704 12.7212 13.4424 12.579C13.3799 12.5188 13.3431 12.437 13.3395 12.3505C13.336 12.264 13.366 12.1795 13.4234 12.1145C13.4649 12.0629 13.5102 12.0145 13.5589 11.9696C14.4004 11.1314 15.2429 10.2941 16.0862 9.45776C16.1498 9.40594 16.2178 9.3597 16.2895 9.31957V9.31957Z" fill="#444444"/>
<path d="M8.92583 15.3854C8.47255 15.5135 8.00572 15.6591 7.53143 15.773C7.30106 15.829 7.16149 15.9807 7.0131 16.133C6.96265 16.1933 6.89453 16.2365 6.81825 16.2564C6.74197 16.2763 6.66134 16.2721 6.5876 16.2442C6.37349 16.1681 6.26712 15.8593 6.4426 15.7177C6.88437 15.3598 6.91689 14.8367 7.07408 14.3607C7.14184 14.1443 7.20214 13.9246 7.25905 13.7284L8.92583 15.3854Z" fill="#444444"/>
</svg>
