<svg width="21" height="20" viewBox="0 0 21 20" fill="none" xmlns="http://www.w3.org/2000/svg">
<g clip-path="url(#clip0_85_308)">
<path d="M10.3331 19.9199H10.3291C8.76877 19.9193 7.22168 19.551 5.83527 18.8521L1.56158 19.8242C1.30081 19.8835 1.02768 19.8052 0.83786 19.6167C0.648041 19.4283 0.567932 19.1558 0.625305 18.8945L1.55136 14.6852C0.755768 13.216 0.335693 11.6068 0.333405 10.0112C0.333252 10.0057 0.333252 10.0002 0.333252 9.99484C0.33432 7.35065 1.38 4.86041 3.27744 2.98297C5.17059 1.1098 7.67624 0.0781555 10.3329 0.0781555C12.9956 0.0792236 15.4973 1.11179 17.3779 2.98541C19.2847 4.88513 20.3342 7.37735 20.3333 10.0028C20.3325 11.9869 19.7375 13.9044 18.6128 15.548C18.3691 15.9041 17.883 15.9952 17.5269 15.7515C17.1709 15.5078 17.0796 15.0217 17.3233 14.6656C18.2695 13.2828 18.77 11.6703 18.7708 10.0022C18.7715 7.79529 17.8853 5.69644 16.2752 4.09229C14.6893 2.51224 12.5789 1.64157 10.3326 1.64066C5.68741 1.64066 1.90552 5.38058 1.89575 9.9808C1.89575 9.98584 1.8959 9.99072 1.8959 9.99561C1.89529 11.4196 2.29584 12.8633 3.05405 14.1709C3.15216 14.3401 3.18329 14.5398 3.14117 14.7307L2.41592 18.0274L5.76904 17.2646C5.95413 17.2226 6.14822 17.2493 6.31516 17.3398C7.54028 18.0049 8.92838 18.3568 10.3294 18.3574H10.3329C11.8565 18.3574 13.3528 17.9454 14.6599 17.1662C15.0304 16.9451 15.5099 17.0664 15.7309 17.437C15.9518 17.8076 15.8307 18.2871 15.4601 18.5082C13.9111 19.4316 12.1382 19.9199 10.3329 19.9199H10.3331ZM8.12668 6.0242C7.95532 5.64456 7.77496 5.63159 7.612 5.62503H7.17361C7.02103 5.62503 6.77322 5.6821 6.56372 5.91022C6.35406 6.13834 5.76309 6.68979 5.76309 7.81146C5.76309 8.93314 6.58279 10.0171 6.69708 10.1694C6.81152 10.3214 8.27957 12.6967 10.6044 13.6106C12.5366 14.37 12.9298 14.2189 13.3492 14.1808C13.7686 14.1429 14.7026 13.6295 14.893 13.0971C15.0838 12.5649 15.0838 12.1086 15.0266 12.0133C14.9695 11.9184 14.8169 11.8613 14.5882 11.7473C14.3593 11.6333 13.2382 11.0723 13.0286 10.9963C12.8189 10.9203 12.6665 10.8823 12.5139 11.1106C12.3613 11.3385 11.9121 11.8657 11.7786 12.0177C11.6452 12.1701 11.5117 12.1891 11.283 12.0751C11.0542 11.9606 10.325 11.7157 9.45114 10.9392C8.77106 10.3348 8.29926 9.56424 8.16574 9.33597C8.03223 9.108 8.1514 8.98441 8.26614 8.87073C8.36884 8.76865 8.50784 8.62903 8.62228 8.49597C8.73642 8.36292 8.76907 8.26785 8.84521 8.11572C8.92151 7.96359 8.88336 7.83054 8.82629 7.7164C8.76907 7.60242 8.32993 6.47495 8.12653 6.0242" fill="#444444"/>
<path d="M1.69182 4.98048C2.51223 3.52493 3.65097 2.31281 5.00058 1.46161C5.00514 1.45856 5.00979 1.45563 5.01432 1.45279C7.25343 0.0463268 9.9182 -0.393831 12.5175 0.213246C15.111 0.818981 17.318 2.39114 18.732 4.64028C20.1483 6.89502 20.6056 9.56249 20.0204 12.1519C19.427 14.7772 17.8757 16.9922 15.6526 18.3888C13.9724 19.4442 12.0324 19.9611 10.0424 19.8837C9.61116 19.867 9.2753 19.5039 9.29204 19.0727C9.30886 18.6416 9.67186 18.3056 10.1031 18.3224C11.7773 18.3874 13.4088 17.9529 14.8214 17.0657C16.6902 15.8917 17.9953 14.0243 18.4964 11.8074C18.99 9.62388 18.6038 7.37379 17.409 5.47166C14.9366 1.53906 9.75753 0.327922 5.85784 2.76811L5.84539 2.77612C4.63956 3.5335 3.63046 4.64105 2.92708 5.97887C2.83604 6.152 2.68351 6.28466 2.49949 6.3506L1.69182 4.98048Z" fill="#444444"/>
</g>
<defs>
<clipPath id="clip0_85_308">
<rect width="20" height="20" fill="white" transform="translate(0.333252)"/>
</clipPath>
</defs>
</svg>
